<mxfile host="65bd71144e">
    <diagram id="tQ7L7jLhEiCsHXpghWq2" name="Page-1">
        <mxGraphModel dx="864" dy="1835" grid="1" gridSize="10" guides="1" tooltips="1" connect="1" arrows="1" fold="1" page="1" pageScale="1" pageWidth="827" pageHeight="1169" math="0" shadow="0">
            <root>
                <mxCell id="0"/>
                <mxCell id="1" parent="0"/>
                <mxCell id="112" value="" style="rounded=0.5;whiteSpace=wrap;html=1;fontSize=14;fillColor=#eeeeee;strokeColor=none;" vertex="1" parent="1">
                    <mxGeometry x="420" y="60" width="660" height="940" as="geometry"/>
                </mxCell>
                <mxCell id="45" style="edgeStyle=none;html=1;exitX=1;exitY=0.5;exitDx=0;exitDy=0;fontSize=14;endArrow=none;endFill=0;entryX=0;entryY=0.5;entryDx=0;entryDy=0;" edge="1" parent="1" source="2" target="3">
                    <mxGeometry relative="1" as="geometry">
                        <mxPoint x="240" y="220" as="targetPoint"/>
                        <Array as="points">
                            <mxPoint x="240" y="490"/>
                            <mxPoint x="240" y="160"/>
                        </Array>
                    </mxGeometry>
                </mxCell>
                <mxCell id="46" style="edgeStyle=none;html=1;exitX=1;exitY=0.5;exitDx=0;exitDy=0;entryX=0;entryY=0.5;entryDx=0;entryDy=0;fontSize=14;endArrow=none;endFill=0;" edge="1" parent="1" source="2" target="4">
                    <mxGeometry relative="1" as="geometry">
                        <Array as="points">
                            <mxPoint x="240" y="490"/>
                            <mxPoint x="240" y="270"/>
                        </Array>
                    </mxGeometry>
                </mxCell>
                <mxCell id="47" style="edgeStyle=none;html=1;exitX=1;exitY=0.5;exitDx=0;exitDy=0;entryX=0;entryY=0.5;entryDx=0;entryDy=0;fontSize=14;endArrow=none;endFill=0;" edge="1" parent="1" source="2" target="5">
                    <mxGeometry relative="1" as="geometry">
                        <Array as="points">
                            <mxPoint x="240" y="490"/>
                            <mxPoint x="240" y="380"/>
                        </Array>
                    </mxGeometry>
                </mxCell>
                <mxCell id="48" style="edgeStyle=none;html=1;exitX=1;exitY=0.5;exitDx=0;exitDy=0;entryX=0;entryY=0.5;entryDx=0;entryDy=0;fontSize=14;endArrow=none;endFill=0;" edge="1" parent="1" source="2" target="6">
                    <mxGeometry relative="1" as="geometry"/>
                </mxCell>
                <mxCell id="49" style="edgeStyle=none;html=1;exitX=1;exitY=0.5;exitDx=0;exitDy=0;entryX=0;entryY=0.5;entryDx=0;entryDy=0;fontSize=14;endArrow=none;endFill=0;" edge="1" parent="1" source="2" target="7">
                    <mxGeometry relative="1" as="geometry">
                        <Array as="points">
                            <mxPoint x="240" y="490"/>
                            <mxPoint x="240" y="600"/>
                        </Array>
                    </mxGeometry>
                </mxCell>
                <mxCell id="50" style="edgeStyle=none;html=1;exitX=1;exitY=0.5;exitDx=0;exitDy=0;entryX=0;entryY=0.75;entryDx=0;entryDy=0;fontSize=14;endArrow=none;endFill=0;" edge="1" parent="1" source="2" target="8">
                    <mxGeometry relative="1" as="geometry">
                        <Array as="points">
                            <mxPoint x="240" y="490"/>
                            <mxPoint x="240" y="725"/>
                        </Array>
                    </mxGeometry>
                </mxCell>
                <mxCell id="51" style="edgeStyle=none;html=1;exitX=1;exitY=0.5;exitDx=0;exitDy=0;entryX=0;entryY=0.5;entryDx=0;entryDy=0;fontSize=14;endArrow=none;endFill=0;" edge="1" parent="1" source="2" target="9">
                    <mxGeometry relative="1" as="geometry">
                        <Array as="points">
                            <mxPoint x="240" y="490"/>
                            <mxPoint x="240" y="820"/>
                        </Array>
                    </mxGeometry>
                </mxCell>
                <mxCell id="2" value="&lt;font style=&quot;font-size: 14px&quot;&gt;&lt;b&gt;kadai-core&lt;/b&gt;&lt;/font&gt;" style="rounded=1;whiteSpace=wrap;html=1;fillColor=#bac8d3;strokeColor=#23445d;" vertex="1" parent="1">
                    <mxGeometry x="60" y="450" width="140" height="80" as="geometry"/>
                </mxCell>
                <mxCell id="52" style="edgeStyle=none;html=1;exitX=1;exitY=0.5;exitDx=0;exitDy=0;entryX=0;entryY=0.5;entryDx=0;entryDy=0;fontSize=14;endArrow=none;endFill=0;" edge="1" parent="1" source="3" target="19">
                    <mxGeometry relative="1" as="geometry">
                        <Array as="points">
                            <mxPoint x="430" y="160"/>
                            <mxPoint x="430" y="100"/>
                        </Array>
                    </mxGeometry>
                </mxCell>
                <mxCell id="3" value="classification" style="rounded=1;whiteSpace=wrap;html=1;fillColor=#fad7ac;strokeColor=#b46504;fontSize=14;" vertex="1" parent="1">
                    <mxGeometry x="270" y="130" width="120" height="60" as="geometry"/>
                </mxCell>
                <mxCell id="53" style="edgeStyle=none;html=1;exitX=1;exitY=0.5;exitDx=0;exitDy=0;entryX=0;entryY=0.25;entryDx=0;entryDy=0;fontSize=14;endArrow=none;endFill=0;" edge="1" parent="1" source="4" target="23">
                    <mxGeometry relative="1" as="geometry">
                        <Array as="points">
                            <mxPoint x="430" y="270"/>
                            <mxPoint x="430" y="218"/>
                        </Array>
                    </mxGeometry>
                </mxCell>
                <mxCell id="4" value="common" style="rounded=1;whiteSpace=wrap;html=1;fillColor=#bac8d3;strokeColor=#23445d;fontSize=14;" vertex="1" parent="1">
                    <mxGeometry x="270" y="240" width="120" height="60" as="geometry"/>
                </mxCell>
                <mxCell id="54" style="edgeStyle=none;html=1;exitX=1;exitY=0.5;exitDx=0;exitDy=0;entryX=0;entryY=0.5;entryDx=0;entryDy=0;fontSize=14;endArrow=none;endFill=0;" edge="1" parent="1" source="5" target="34">
                    <mxGeometry relative="1" as="geometry">
                        <Array as="points">
                            <mxPoint x="430" y="380"/>
                            <mxPoint x="430" y="360"/>
                        </Array>
                    </mxGeometry>
                </mxCell>
                <mxCell id="5" value="monitor" style="rounded=1;whiteSpace=wrap;html=1;fillColor=#bac8d3;strokeColor=#23445d;fontSize=14;" vertex="1" parent="1">
                    <mxGeometry x="270" y="350" width="120" height="60" as="geometry"/>
                </mxCell>
                <mxCell id="55" style="edgeStyle=none;html=1;exitX=1;exitY=0.5;exitDx=0;exitDy=0;entryX=0;entryY=0.5;entryDx=0;entryDy=0;fontSize=14;endArrow=none;endFill=0;" edge="1" parent="1" source="6" target="37">
                    <mxGeometry relative="1" as="geometry"/>
                </mxCell>
                <mxCell id="6" value="spi" style="rounded=1;whiteSpace=wrap;html=1;fillColor=#bac8d3;strokeColor=#23445d;fontSize=14;" vertex="1" parent="1">
                    <mxGeometry x="270" y="460" width="120" height="60" as="geometry"/>
                </mxCell>
                <mxCell id="56" style="edgeStyle=none;html=1;exitX=1;exitY=0.5;exitDx=0;exitDy=0;entryX=0;entryY=0.5;entryDx=0;entryDy=0;fontSize=14;endArrow=none;endFill=0;" edge="1" parent="1" source="7" target="39">
                    <mxGeometry relative="1" as="geometry">
                        <Array as="points">
                            <mxPoint x="430" y="600"/>
                            <mxPoint x="430" y="620"/>
                        </Array>
                    </mxGeometry>
                </mxCell>
                <mxCell id="7" value="task" style="rounded=1;whiteSpace=wrap;html=1;fillColor=#fad7ac;strokeColor=#b46504;fontSize=14;" vertex="1" parent="1">
                    <mxGeometry x="270" y="570" width="120" height="60" as="geometry"/>
                </mxCell>
                <mxCell id="57" style="edgeStyle=none;html=1;exitX=1;exitY=0.5;exitDx=0;exitDy=0;entryX=0;entryY=0.5;entryDx=0;entryDy=0;fontSize=14;endArrow=none;endFill=0;" edge="1" parent="1" source="8" target="40">
                    <mxGeometry relative="1" as="geometry">
                        <Array as="points">
                            <mxPoint x="430" y="710"/>
                            <mxPoint x="430" y="750"/>
                        </Array>
                    </mxGeometry>
                </mxCell>
                <mxCell id="8" value="user" style="rounded=1;whiteSpace=wrap;html=1;fillColor=#bac8d3;strokeColor=#23445d;fontSize=14;" vertex="1" parent="1">
                    <mxGeometry x="270" y="680" width="120" height="60" as="geometry"/>
                </mxCell>
                <mxCell id="58" style="edgeStyle=none;html=1;exitX=1;exitY=0.5;exitDx=0;exitDy=0;entryX=0;entryY=0.5;entryDx=0;entryDy=0;fontSize=14;endArrow=none;endFill=0;" edge="1" parent="1" source="9" target="41">
                    <mxGeometry relative="1" as="geometry">
                        <Array as="points">
                            <mxPoint x="430" y="820"/>
                            <mxPoint x="430" y="880"/>
                        </Array>
                    </mxGeometry>
                </mxCell>
                <mxCell id="9" value="workbasket" style="rounded=1;whiteSpace=wrap;html=1;fillColor=#fad7ac;strokeColor=#b46504;fontSize=14;" vertex="1" parent="1">
                    <mxGeometry x="270" y="790" width="120" height="60" as="geometry"/>
                </mxCell>
                <mxCell id="80" style="edgeStyle=none;html=1;exitX=1;exitY=0.5;exitDx=0;exitDy=0;fontSize=14;endArrow=none;endFill=0;" edge="1" parent="1" source="19">
                    <mxGeometry relative="1" as="geometry">
                        <mxPoint x="920" y="120" as="targetPoint"/>
                        <Array as="points">
                            <mxPoint x="920" y="100"/>
                        </Array>
                    </mxGeometry>
                </mxCell>
                <mxCell id="19" value="api" style="rounded=1;whiteSpace=wrap;html=1;fillColor=#b0e3e6;strokeColor=#0e8088;fontSize=14;" vertex="1" parent="1">
                    <mxGeometry x="460" y="75" width="110" height="50" as="geometry"/>
                </mxCell>
                <mxCell id="83" style="edgeStyle=none;html=1;exitX=1;exitY=0.5;exitDx=0;exitDy=0;fontSize=14;endArrow=none;endFill=0;entryX=0.5;entryY=0;entryDx=0;entryDy=0;" edge="1" parent="1" source="23" target="62">
                    <mxGeometry relative="1" as="geometry">
                        <mxPoint x="660" y="229.57142857142867" as="targetPoint"/>
                        <Array as="points">
                            <mxPoint x="655" y="230"/>
                        </Array>
                    </mxGeometry>
                </mxCell>
                <mxCell id="23" value="api" style="rounded=1;whiteSpace=wrap;html=1;fillColor=#b0e3e6;strokeColor=#0e8088;fontSize=14;" vertex="1" parent="1">
                    <mxGeometry x="460" y="205" width="110" height="50" as="geometry"/>
                </mxCell>
                <mxCell id="84" style="edgeStyle=none;html=1;exitX=1;exitY=0.5;exitDx=0;exitDy=0;entryX=0.5;entryY=0;entryDx=0;entryDy=0;fontSize=14;endArrow=none;endFill=0;" edge="1" parent="1" source="34" target="66">
                    <mxGeometry relative="1" as="geometry">
                        <Array as="points">
                            <mxPoint x="785" y="360"/>
                        </Array>
                    </mxGeometry>
                </mxCell>
                <mxCell id="34" value="api" style="rounded=1;whiteSpace=wrap;html=1;fillColor=#b0e3e6;strokeColor=#0e8088;fontSize=14;" vertex="1" parent="1">
                    <mxGeometry x="460" y="335" width="110" height="50" as="geometry"/>
                </mxCell>
                <mxCell id="91" style="edgeStyle=none;html=1;exitX=1;exitY=0.5;exitDx=0;exitDy=0;fontSize=14;endArrow=none;endFill=0;" edge="1" parent="1" source="37">
                    <mxGeometry relative="1" as="geometry">
                        <mxPoint x="620" y="489.57142857142867" as="targetPoint"/>
                    </mxGeometry>
                </mxCell>
                <mxCell id="37" value="api" style="rounded=1;whiteSpace=wrap;html=1;fillColor=#b0e3e6;strokeColor=#0e8088;fontSize=14;" vertex="1" parent="1">
                    <mxGeometry x="460" y="465" width="110" height="50" as="geometry"/>
                </mxCell>
                <mxCell id="39" value="api" style="rounded=1;whiteSpace=wrap;html=1;fillColor=#b0e3e6;strokeColor=#0e8088;fontSize=14;" vertex="1" parent="1">
                    <mxGeometry x="460" y="595" width="110" height="50" as="geometry"/>
                </mxCell>
                <mxCell id="40" value="api" style="rounded=1;whiteSpace=wrap;html=1;fillColor=#b0e3e6;strokeColor=#0e8088;fontSize=14;" vertex="1" parent="1">
                    <mxGeometry x="460" y="725" width="110" height="50" as="geometry"/>
                </mxCell>
                <mxCell id="41" value="api" style="rounded=1;whiteSpace=wrap;html=1;fillColor=#b0e3e6;strokeColor=#0e8088;fontSize=14;" vertex="1" parent="1">
                    <mxGeometry x="460" y="855" width="110" height="50" as="geometry"/>
                </mxCell>
                <mxCell id="82" style="edgeStyle=none;html=1;exitX=0.5;exitY=0;exitDx=0;exitDy=0;fontSize=14;endArrow=none;endFill=0;" edge="1" parent="1" source="59">
                    <mxGeometry relative="1" as="geometry">
                        <mxPoint x="655.2857142857144" y="100" as="targetPoint"/>
                    </mxGeometry>
                </mxCell>
                <mxCell id="59" value="models" style="rounded=1;whiteSpace=wrap;html=1;fillColor=#b0e3e6;strokeColor=#0e8088;fontSize=14;" vertex="1" parent="1">
                    <mxGeometry x="600" y="110" width="110" height="50" as="geometry"/>
                </mxCell>
                <mxCell id="81" style="edgeStyle=none;html=1;exitX=0.5;exitY=0;exitDx=0;exitDy=0;fontSize=14;endArrow=none;endFill=0;" edge="1" parent="1" source="60">
                    <mxGeometry relative="1" as="geometry">
                        <mxPoint x="785.2857142857144" y="100" as="targetPoint"/>
                    </mxGeometry>
                </mxCell>
                <mxCell id="60" value="exceptions" style="rounded=1;whiteSpace=wrap;html=1;fillColor=#b0e3e6;strokeColor=#0e8088;fontSize=14;" vertex="1" parent="1">
                    <mxGeometry x="730" y="110" width="110" height="50" as="geometry"/>
                </mxCell>
                <mxCell id="61" value="..." style="rounded=1;whiteSpace=wrap;html=1;fillColor=#b0e3e6;strokeColor=#0e8088;fontSize=14;" vertex="1" parent="1">
                    <mxGeometry x="860" y="110" width="110" height="50" as="geometry"/>
                </mxCell>
                <mxCell id="62" value="..." style="rounded=1;whiteSpace=wrap;html=1;fillColor=#b0e3e6;strokeColor=#0e8088;fontSize=14;" vertex="1" parent="1">
                    <mxGeometry x="600" y="240" width="110" height="50" as="geometry"/>
                </mxCell>
                <mxCell id="85" style="edgeStyle=none;html=1;exitX=0.5;exitY=0;exitDx=0;exitDy=0;fontSize=14;endArrow=none;endFill=0;" edge="1" parent="1" source="65">
                    <mxGeometry relative="1" as="geometry">
                        <mxPoint x="655.2857142857144" y="369.57142857142867" as="targetPoint"/>
                    </mxGeometry>
                </mxCell>
                <mxCell id="87" style="edgeStyle=none;html=1;exitX=0.5;exitY=0;exitDx=0;exitDy=0;fontSize=14;endArrow=none;endFill=0;" edge="1" parent="1" source="65">
                    <mxGeometry relative="1" as="geometry">
                        <mxPoint x="655.2857142857144" y="360" as="targetPoint"/>
                    </mxGeometry>
                </mxCell>
                <mxCell id="65" value="reports" style="rounded=1;whiteSpace=wrap;html=1;fillColor=#b0e3e6;strokeColor=#0e8088;fontSize=14;" vertex="1" parent="1">
                    <mxGeometry x="600" y="370" width="110" height="50" as="geometry"/>
                </mxCell>
                <mxCell id="66" value="..." style="rounded=1;whiteSpace=wrap;html=1;fillColor=#b0e3e6;strokeColor=#0e8088;fontSize=14;" vertex="1" parent="1">
                    <mxGeometry x="730" y="370" width="110" height="50" as="geometry"/>
                </mxCell>
                <mxCell id="93" value="" style="endArrow=none;dashed=1;html=1;dashPattern=1 3;strokeWidth=2;fontSize=14;" edge="1" parent="1">
                    <mxGeometry width="50" height="50" relative="1" as="geometry">
                        <mxPoint x="620" y="490" as="sourcePoint"/>
                        <mxPoint x="680" y="490" as="targetPoint"/>
                    </mxGeometry>
                </mxCell>
                <mxCell id="94" style="edgeStyle=none;html=1;exitX=1;exitY=0.5;exitDx=0;exitDy=0;fontSize=14;endArrow=none;endFill=0;" edge="1" parent="1">
                    <mxGeometry relative="1" as="geometry">
                        <mxPoint x="570" y="620" as="sourcePoint"/>
                        <mxPoint x="920" y="640" as="targetPoint"/>
                        <Array as="points">
                            <mxPoint x="920" y="620"/>
                        </Array>
                    </mxGeometry>
                </mxCell>
                <mxCell id="99" style="edgeStyle=none;html=1;exitX=0.5;exitY=0;exitDx=0;exitDy=0;fontSize=14;endArrow=none;endFill=0;" edge="1" parent="1" source="95">
                    <mxGeometry relative="1" as="geometry">
                        <mxPoint x="655.2857142857144" y="620" as="targetPoint"/>
                    </mxGeometry>
                </mxCell>
                <mxCell id="95" value="models" style="rounded=1;whiteSpace=wrap;html=1;fillColor=#b0e3e6;strokeColor=#0e8088;fontSize=14;" vertex="1" parent="1">
                    <mxGeometry x="600" y="630" width="110" height="50" as="geometry"/>
                </mxCell>
                <mxCell id="98" style="edgeStyle=none;html=1;exitX=0.5;exitY=0;exitDx=0;exitDy=0;fontSize=14;endArrow=none;endFill=0;" edge="1" parent="1" source="96">
                    <mxGeometry relative="1" as="geometry">
                        <mxPoint x="785.2857142857144" y="620" as="targetPoint"/>
                    </mxGeometry>
                </mxCell>
                <mxCell id="96" value="exceptions" style="rounded=1;whiteSpace=wrap;html=1;fillColor=#b0e3e6;strokeColor=#0e8088;fontSize=14;" vertex="1" parent="1">
                    <mxGeometry x="730" y="630" width="110" height="50" as="geometry"/>
                </mxCell>
                <mxCell id="97" value="..." style="rounded=1;whiteSpace=wrap;html=1;fillColor=#b0e3e6;strokeColor=#0e8088;fontSize=14;" vertex="1" parent="1">
                    <mxGeometry x="860" y="630" width="110" height="50" as="geometry"/>
                </mxCell>
                <mxCell id="100" style="edgeStyle=none;html=1;exitX=1;exitY=0.5;exitDx=0;exitDy=0;fontSize=14;endArrow=none;endFill=0;" edge="1" parent="1">
                    <mxGeometry relative="1" as="geometry">
                        <mxPoint x="570" y="750" as="sourcePoint"/>
                        <mxPoint x="920" y="770" as="targetPoint"/>
                        <Array as="points">
                            <mxPoint x="920" y="750"/>
                        </Array>
                    </mxGeometry>
                </mxCell>
                <mxCell id="108" style="edgeStyle=none;html=1;exitX=0.5;exitY=0;exitDx=0;exitDy=0;fontSize=14;endArrow=none;endFill=0;" edge="1" parent="1" source="101">
                    <mxGeometry relative="1" as="geometry">
                        <mxPoint x="655.2857142857144" y="750" as="targetPoint"/>
                    </mxGeometry>
                </mxCell>
                <mxCell id="101" value="models" style="rounded=1;whiteSpace=wrap;html=1;fillColor=#b0e3e6;strokeColor=#0e8088;fontSize=14;" vertex="1" parent="1">
                    <mxGeometry x="600" y="760" width="110" height="50" as="geometry"/>
                </mxCell>
                <mxCell id="109" style="edgeStyle=none;html=1;exitX=0.5;exitY=0;exitDx=0;exitDy=0;fontSize=14;endArrow=none;endFill=0;" edge="1" parent="1" source="102">
                    <mxGeometry relative="1" as="geometry">
                        <mxPoint x="785.2857142857144" y="750" as="targetPoint"/>
                    </mxGeometry>
                </mxCell>
                <mxCell id="102" value="exceptions" style="rounded=1;whiteSpace=wrap;html=1;fillColor=#b0e3e6;strokeColor=#0e8088;fontSize=14;" vertex="1" parent="1">
                    <mxGeometry x="730" y="760" width="110" height="50" as="geometry"/>
                </mxCell>
                <mxCell id="103" value="..." style="rounded=1;whiteSpace=wrap;html=1;fillColor=#b0e3e6;strokeColor=#0e8088;fontSize=14;" vertex="1" parent="1">
                    <mxGeometry x="860" y="760" width="110" height="50" as="geometry"/>
                </mxCell>
                <mxCell id="104" style="edgeStyle=none;html=1;exitX=1;exitY=0.5;exitDx=0;exitDy=0;fontSize=14;endArrow=none;endFill=0;" edge="1" parent="1">
                    <mxGeometry relative="1" as="geometry">
                        <mxPoint x="570" y="880" as="sourcePoint"/>
                        <mxPoint x="920" y="900" as="targetPoint"/>
                        <Array as="points">
                            <mxPoint x="920" y="880"/>
                        </Array>
                    </mxGeometry>
                </mxCell>
                <mxCell id="110" style="edgeStyle=none;html=1;exitX=0.5;exitY=0;exitDx=0;exitDy=0;fontSize=14;endArrow=none;endFill=0;" edge="1" parent="1" source="105">
                    <mxGeometry relative="1" as="geometry">
                        <mxPoint x="655.2857142857144" y="880" as="targetPoint"/>
                    </mxGeometry>
                </mxCell>
                <mxCell id="105" value="models" style="rounded=1;whiteSpace=wrap;html=1;fillColor=#b0e3e6;strokeColor=#0e8088;" vertex="1" parent="1">
                    <mxGeometry x="600" y="890" width="110" height="50" as="geometry"/>
                </mxCell>
                <mxCell id="111" style="edgeStyle=none;html=1;exitX=0.5;exitY=0;exitDx=0;exitDy=0;fontSize=14;endArrow=none;endFill=0;" edge="1" parent="1" source="106">
                    <mxGeometry relative="1" as="geometry">
                        <mxPoint x="785.2857142857144" y="880" as="targetPoint"/>
                    </mxGeometry>
                </mxCell>
                <mxCell id="106" value="exceptions" style="rounded=1;whiteSpace=wrap;html=1;fillColor=#b0e3e6;strokeColor=#0e8088;" vertex="1" parent="1">
                    <mxGeometry x="730" y="890" width="110" height="50" as="geometry"/>
                </mxCell>
                <mxCell id="107" value="..." style="rounded=1;whiteSpace=wrap;html=1;fillColor=#b0e3e6;strokeColor=#0e8088;" vertex="1" parent="1">
                    <mxGeometry x="860" y="890" width="110" height="50" as="geometry"/>
                </mxCell>
                <mxCell id="113" value="" style="shape=curlyBracket;whiteSpace=wrap;html=1;rounded=1;fontSize=14;direction=south;" vertex="1" parent="1">
                    <mxGeometry x="420" y="30" width="650" height="30" as="geometry"/>
                </mxCell>
                <mxCell id="114" value="&lt;font style=&quot;font-size: 20px&quot;&gt;&lt;b&gt;JAVA API&lt;/b&gt;&lt;/font&gt;" style="rounded=0;whiteSpace=wrap;html=1;fontSize=14;fillColor=none;strokeColor=none;" vertex="1" parent="1">
                    <mxGeometry x="645" y="-20" width="210" height="60" as="geometry"/>
                </mxCell>
            </root>
        </mxGraphModel>
    </diagram>
</mxfile>